<svg xmlns="http://www.w3.org/2000/svg" viewBox="0 0 74 56"><g fill="#005386"><path d="m21.9 40.3c0-4.8-2.5-8.2-6.9-8.2-5 0-8.1 4-8.1 9.8 0 4.8 2.5 7.9 6.8 7.9 4.7 0 8.2-4 8.2-9.5m-21.9 1.8c0-9.7 6.2-15.8 13.6-15.8 4.4 0 8.2 2.3 9.8 6.7l.9-6.1h6.6l-3.7 21.1c-.2 1.3.1 1.9 1.3 1.9h2.3l-.9 5.1h-3.2c-5.2 0-6.1-1.8-6.1-4.4v-.6c-2.3 3.6-5.1 5.6-9.2 5.6-6.5 0-11.4-5.3-11.4-13.5z"></path><path d="m36.2 47.8 3.6-21h6.7l-3.7 21.2c-.2 1.3.1 1.9 1.3 1.9h2.3l-.9 5.1h-3.3c-5.2 0-7-1.8-6-7.2"></path><path d="m50.3 49.6 4.8-3.2c1.6 2.4 3.7 4 7.2 4 3.3 0 4.6-1.2 4.6-3s-1.5-2.3-5.7-4.4c-3.9-1.9-6.7-4.1-6.7-8.4 0-5.4 4.3-8.2 9.8-8.2 4.3 0 7.4 1.7 9.4 4.2l-4.4 3.6c-1.1-1.5-2.5-2.7-5.1-2.7-2.1 0-3.5.9-3.5 2.6s1.4 2.5 4.6 3.9c4.4 2.1 8 4 8 9.1 0 5-3.7 8.5-11 8.5-6 0-9.9-2.6-12-6"></path></g><path d="m44.4 20.9c2.7 0 4.9-2.2 4.9-4.9s-2.2-4.9-4.9-4.9-4.9 2.2-4.9 4.9 2.2 4.9 4.9 4.9" fill="#e07e27"></path><path d="m31.4 0c-1.6 0-2.9 1.3-2.9 2.9s1.3 2.9 2.9 2.9 2.9-1.3 2.9-2.9-1.3-2.9-2.9-2.9" fill="#f0c49a"></path><path d="m23.5 3c-1.2 0-2.2 1-2.2 2.2s1 2.2 2.2 2.2 2.2-1 2.2-2.2-1-2.2-2.2-2.2" fill="#f6dfc8"></path><path d="m19.4 9.2c-.8 0-1.5.7-1.5 1.5s.7 1.5 1.5 1.5 1.5-.7 1.5-1.5c-.1-.9-.7-1.5-1.5-1.5" fill="#faede0"></path><path d="m40.1 2.4c-2 0-3.7 1.6-3.7 3.7 0 2 1.6 3.7 3.7 3.7 2 0 3.7-1.6 3.7-3.7 0-2-1.7-3.7-3.7-3.7" fill="#e89f5f"></path></svg>